<svg width="576" height="512" xmlns="http://www.w3.org/2000/svg" xmlns:xlink="http://www.w3.org/1999/xlink" xml:space="preserve" overflow="hidden"><defs><clipPath id="clip0"><rect x="352" y="104" width="576" height="512"/></clipPath></defs><g clip-path="url(#clip0)" transform="translate(-352 -104)"><path d="M352 200 928 200C928 164.7 899.3 136 864 136L416 136C380.7 136 352 164.7 352 200ZM352 232 352 520C352 555.3 380.7 584 416 584L864 584C899.3 584 928 555.3 928 520L928 232 352 232ZM416 509.3C416 479.8 439.9 456 469.3 456L586.7 456C616.2 456 640 479.9 640 509.3 640 515.2 635.2 520 629.3 520L426.7 520C420.8 520 416 515.2 416 509.3ZM528 296C563.346 296 592 324.654 592 360 592 395.346 563.346 424 528 424 492.654 424 464 395.346 464 360 464 324.654 492.654 296 528 296ZM704 312C704 303.2 711.2 296 720 296L848 296C856.8 296 864 303.2 864 312 864 320.8 856.8 328 848 328L720 328C711.2 328 704 320.8 704 312ZM704 376C704 367.2 711.2 360 720 360L848 360C856.8 360 864 367.2 864 376 864 384.8 856.8 392 848 392L720 392C711.2 392 704 384.8 704 376ZM704 440C704 431.2 711.2 424 720 424L848 424C856.8 424 864 431.2 864 440 864 448.8 856.8 456 848 456L720 456C711.2 456 704 448.8 704 440Z" fill="#FFFFFF"/></g></svg>