<svg width="683" height="683" xmlns="http://www.w3.org/2000/svg" xmlns:xlink="http://www.w3.org/1999/xlink" xml:space="preserve" overflow="hidden"><defs><clipPath id="clip0"><rect x="298" y="18" width="683" height="683"/></clipPath></defs><g clip-path="url(#clip0)" transform="translate(-298 -18)"><path d="M353.814 18 697.141 18C710.388 18.6003 723.621 23.1225 733.599 32.0469 743.244 40.3709 749.887 52.0566 752.235 64.5827 753.489 72.1331 753.409 79.8035 753.356 87.4339 753.356 115.434 753.329 143.448 753.369 171.448 753.449 176.477 752.382 182.04 748.166 185.282 743.231 189.577 736.267 188.643 730.224 188.777 722.621 188.47 714.923 189.39 707.386 188.163 700.37 186.776 695.954 179.599 696.421 172.702 696.354 140.113 696.448 107.51 696.381 74.9078 582.552 74.9078 468.737 74.8944 354.921 74.9211 354.894 264.64 354.894 454.36 354.921 644.079 468.75 644.092 582.566 644.106 696.394 644.079 696.394 611.917 696.421 579.754 696.381 547.592 696.288 542.549 697.355 536.987 701.57 533.732 706.119 529.703 712.576 530.277 718.205 530.223 725.355 530.41 732.519 529.957 739.656 530.437 745.218 530.624 750.528 534.372 752.342 539.681 753.396 543.07 753.369 546.671 753.382 550.193 753.249 581.342 753.476 612.477 753.276 643.625 753.222 659.406 746.646 675.134 734.907 685.779 724.808 695.371 711.068 700.373 697.275 701L354.027 701C337.899 700.413 321.972 693.29 311.633 680.763 302.882 670.745 298.467 657.552 298 644.359L298 74.0007C298.627 61.061 303.002 48.1347 311.593 38.2899 321.892 25.7771 337.739 18.6537 353.814 18Z" fill="#FFFFFF"/><path d="M781.943 202.063C782.21 194.993 788.519 188.937 795.549 188.83 799.832 188.55 803.754 190.751 806.795 193.579 862.702 244.817 918.61 296.056 974.53 347.294 978.012 350.322 980.48 354.471 981 359.113L981 359.74C980.533 364.436 978.052 368.624 974.544 371.693 920.717 421.01 866.891 470.341 813.065 519.685 809.743 522.646 806.662 525.995 802.806 528.289 796.83 531.837 788.279 529.903 784.437 524.1 781.209 519.712 781.823 513.989 781.743 508.866 781.983 501.316 781.369 493.739 782.063 486.215 782.49 479.959 787.719 475.823 792.028 471.955 823.163 443.995 854.271 416.008 885.367 387.981 751.848 387.941 618.33 388.007 484.825 387.954 477.901 388.434 470.724 383.992 469.337 376.975 468.11 369.438 469.03 361.754 468.723 354.151 468.803 347.854 467.923 340.451 472.792 335.555 477.488 330.272 485.145 331.033 491.521 331.006 622.799 331.046 754.089 331.019 885.367 331.019 854.752 303.419 824.097 275.873 793.455 248.299 789.773 244.911 785.531 241.816 783.223 237.24 781.276 232.451 781.836 227.142 781.756 222.1 781.916 215.416 781.489 208.733 781.943 202.063Z" fill="#FFFFFF"/></g></svg>